<svg xmlns="http://www.w3.org/2000/svg" viewBox="0 0 48 48"><defs><style>.cls-1{fill:#dad7e5;}.cls-2{fill:#edebf2;}.cls-3{fill:#edb996;}.cls-4{fill:#f6ccaf;}.cls-5{fill:#db5669;}.cls-6{fill:#f26674;}.cls-7{fill:#ffdec7;}.cls-8{fill:#be927c;}.cls-9{fill:#a87e6b;}</style></defs><title>professional employee</title><g id="professional_employee" data-name="professional employee"><path class="cls-1" d="M47,39.08V47H1C1,39.49.25,35.61,4,31.94c2.07-2,3.08-2.08,14-5.94l6,6,6-6,10.33,3.65A10,10,0,0,1,47,39.08Z"/><path class="cls-2" d="M47,39.08V45H17.06A13.06,13.06,0,0,1,4,31.94c2.07-2,3.08-2.08,14-5.94l6,6,6-6,10.33,3.65A10,10,0,0,1,47,39.08Z"/><path class="cls-3" d="M30,22.29V26l-6,6-6-6V22.29A8,8,0,0,0,30,22.29Z"/><path class="cls-4" d="M28.35,27.65,24,32l-4-4h0a1.49,1.49,0,0,1,2.21-1.3C24.4,27.89,26,28.39,28.35,27.65Z"/><path class="cls-5" d="M29,47H19l2-9h6C28.79,46,28.41,44.34,29,47Z"/><path class="cls-6" d="M28.56,45c-4.29,0-6.78-3.5-6-7H27Z"/><path class="cls-4" d="M32,13c0,4,.32,6.06-1.44,8.57A8,8,0,0,1,18,22.29C15.58,19.54,16,17,16,13A13.37,13.37,0,0,0,27,8l0,0A5,5,0,0,0,32,13Z"/><path class="cls-7" d="M32,13c0,4,.32,6.06-1.44,8.57a8,8,0,0,1-10.22-.91C17.76,18.08,18,15.31,18,12.92a13.14,13.14,0,0,0,4.37-1.24A14,14,0,0,0,27,8,5,5,0,0,0,32,13Z"/><path class="cls-4" d="M34,17H32V13h2a2,2,0,0,1,0,4Z"/><path class="cls-4" d="M14,17h2V13H14a2,2,0,0,0-2,2h0A2,2,0,0,0,14,17Z"/><path class="cls-8" d="M35,12v1H32a5,5,0,0,1-5-5,13.28,13.28,0,0,1-4.63,3.68C19.13,13.25,16.76,13,13,13V12a11,11,0,0,1,22,0Z"/><path class="cls-9" d="M19.6,11a2.81,2.81,0,0,1-2.7-3.61c.6-2,1.49-4.39,2.59-5.42A11,11,0,0,0,13,12v1c4.32,0,8.13.38,12.36-3.32A13.22,13.22,0,0,1,19.6,11Z"/><polygon class="cls-1" points="24 32 18 38 12.51 27.94 18 26 24 32"/><polygon class="cls-1" points="35.49 27.94 30 38 24 32 30 26 35.49 27.94"/><polygon class="cls-5" points="27 35 27 38 21 38 21 35 24 32 27 35"/><path class="cls-6" d="M27,35v2H25a3,3,0,0,1-3-3l2-2Z"/><rect class="cls-1" x="1" y="47" width="18" height="1"/><rect class="cls-5" x="19" y="47" width="10" height="1"/><rect class="cls-1" x="29" y="47" width="18" height="1"/><path d="M40.66,28.7,31,25.29V22.64A8.9,8.9,0,0,0,32.94,18H34a3,3,0,0,0,2-5.22c0-17-24-17-24,0A3,3,0,0,0,14,18h1.06A8.9,8.9,0,0,0,17,22.64v2.65L7.34,28.7A11,11,0,0,0,0,39.08V47a1,1,0,0,0,2,0V39.08a9,9,0,0,1,6-8.49L12.4,29c5.19,10.37,4.76,10,5.6,10,2,0,3.28-6.85,0,7.78a1,1,0,0,0,2,.44L21.8,39h4.4L28,47.22a1,1,0,0,0,2-.44c-2.27-10.18-2-8.7-2-9.37C30.87,40.28,30,40.33,35.6,29L40,30.59a9,9,0,0,1,6,8.49V47a1,1,0,0,0,2,0V39.08A11,11,0,0,0,40.66,28.7ZM24,30.59l-5-5V24.48a9,9,0,0,0,10,0v1.11ZM24,24a7,7,0,0,1-7-7V14a14.23,14.23,0,0,0,9.39-3.85A6,6,0,0,0,31,13.91V17A7,7,0,0,1,24,24Zm10-8H33V14h1A1,1,0,0,1,34,16ZM24,2A10,10,0,0,1,34,12H32a4,4,0,0,1-4-4,1,1,0,0,0-1.78-.62A12.36,12.36,0,0,1,16,12H14A10,10,0,0,1,24,2ZM14,14h1v2H14A1,1,0,0,1,14,14Zm4.27,22.31-4-7.94,3.44-1.22L22.59,32ZM26,37H22V35.41l2-2,2,2Zm3.73-.69L25.41,32l4.85-4.85,3.44,1.22Z"/><path d="M8,45v2a1,1,0,0,0,2,0V45A1,1,0,0,0,8,45Z"/><path d="M38,45v2a1,1,0,0,0,2,0V45A1,1,0,0,0,38,45Z"/></g></svg>