<?xml version="1.0" encoding="utf-8"?>
<!-- Generator: Adobe Illustrator 24.0.0, SVG Export Plug-In . SVG Version: 6.00 Build 0)  -->
<svg version="1.1" id="Layer_1" xmlns="http://www.w3.org/2000/svg" xmlns:xlink="http://www.w3.org/1999/xlink" x="0px" y="0px"
	 viewBox="0 0 256 256" enable-background="new 0 0 256 256" xml:space="preserve">
<g>
</g>
<g>
	<path fill="#FFB69F" d="M79.23,185.99c-0.37,0.57-14.82,23.21-8.22,64.34H56.07c6.026-61.385,5.084-48.813,5.29-64.35h17.88
		C79.24,185.98,79.24,185.98,79.23,185.99z"/>
	<path fill="#FFB69F" d="M199.93,250.33h-14.95c6.61-41.13-7.84-63.776-8.21-64.346c-0.01-0.01-0.01,0-0.01,0h17.88
		C194.85,201.514,193.9,188.94,199.93,250.33z"/>
	<path fill="#FC5D3D" d="M194.64,185.984l-0.51-39.084c-0.09-6.5-4.04-12.31-10.05-14.78l-25.5-10.48
		c0,19.39-15.25,29.13-30.58,29.24c-15.33-0.11-30.58-9.85-30.58-29.24l-25.5,10.48c-6.01,2.47-9.96,8.28-10.05,14.78l-0.51,39.08
		h17.88c0,0,0,0-0.01,0.01c-0.37,0.57-14.82,23.21-8.22,64.34h113.97c6.61-41.13-7.84-63.776-8.21-64.346H194.64z"/>
	<g>
		<g>
			<path fill="#FFB69F" d="M163.93,65.73v4.24c0,14.43-8.41,26.39-19.46,31.91c-9.82,5.1-21.95,5.77-32.94,0.05
				c-9.82-4.36-19.46-16.95-19.46-31.96V47.18c0-3.76,3.37-6.64,7.09-6.02l51.15,8.5C158.17,50.97,163.93,57.77,163.93,65.73z"/>
		</g>
		<g>
			<path fill="#7D7B79" d="M176.82,54.5c0,23.85,0.05,36.43-12.89,57.2c-3.53-7.54-19.46-9.82-19.46-9.82
				c11.05-5.52,19.46-17.48,19.46-31.91v-4.24c0-7.96-5.76-14.76-13.62-16.07l-51.15-8.5c-3.72-0.62-7.09,2.26-7.09,6.02v22.79
				c0,15.01,9.64,27.6,19.46,31.96c0,0-16.1,2.58-19.46,9.77C79.16,90.97,79.18,78.43,79.18,54.5c0-26.8,21.45-48.52,48.82-48.83
				C155.38,5.98,176.82,27.71,176.82,54.5z"/>
		</g>
		<g>
			<path fill="#FFB69F" d="M199.93,250.33h-14.95c6.61-41.13-7.84-63.77-8.21-64.34c-0.01-0.01-0.01-0.01-0.01-0.01h17.88
				C194.85,201.51,193.9,188.94,199.93,250.33z"/>
		</g>
		<g>
			<path fill="#FFB69F" d="M158.58,121.64c0,19.39-15.25,29.13-30.58,29.24c-15.33-0.11-30.58-9.85-30.58-29.24
				c5.92-2.4,3.8-1.53,7.92-3.23c3.74-1.52,6.19-5.18,6.19-9.21v-7.27c10.99,5.72,23.12,5.05,32.94-0.05v7.32
				c0,4.03,2.45,7.69,6.19,9.21C154.99,120.19,152.62,119.22,158.58,121.64z"/>
		</g>
		<g>
			<path fill="#FFCBC3" d="M174.625,245.093c-1.491,0-2.643-1.289-2.489-2.76c0.245-2.348,0.427-4.706,0.54-7.008
				c0.067-1.379,1.229-2.439,2.62-2.375c1.379,0.068,2.441,1.241,2.374,2.62c-0.118,2.394-0.307,4.844-0.562,7.283
				C176.975,244.138,175.889,245.093,174.625,245.093z M172.762,225.534c-0.811-24.539-9.121-37.64-9.475-38.186
				c-0.262-0.405-0.401-0.876-0.401-1.359c0-0.174,1.583-9.971,1.352-16.431l-0.511-16.352c-0.043-1.38,1.041-2.534,2.421-2.577
				c1.364-0.012,2.534,1.041,2.577,2.421l0.51,16.34c0.231,6.673-0.821,12.592-1.282,16.013c1.931,3.333,9.052,17.105,9.808,39.964
				c0.045,1.38-1.036,2.536-2.416,2.581C173.97,227.998,172.808,226.92,172.762,225.534z"/>
		</g>
		<g>
			<path d="M119.88,80.639c-0.47-1.25-1.95-1.94-3.21-1.47c-1.29,0.48-1.96,1.92-1.48,3.21c0,0.01,0,0.01,0.011,0.01
				c1.973,5.303,7.033,8.87,12.8,8.87c5.922,0,10.896-3.728,12.81-8.87c0.24-0.63,0.21-1.31-0.06-1.91
				c-0.28-0.61-0.78-1.07-1.4-1.31c-1.26-0.47-2.75,0.21-3.22,1.47c-1.26,3.36-4.521,5.62-8.13,5.62
				C124.39,86.259,121.13,84,119.88,80.639z"/>
			<path d="M108.775,60.473v2.116c0,1.381,1.119,2.5,2.5,2.5s2.5-1.119,2.5-2.5v-2.116c0-1.381-1.119-2.5-2.5-2.5
				S108.775,59.093,108.775,60.473z"/>
			<path d="M142.225,60.473v2.116c0,1.381,1.119,2.5,2.5,2.5s2.5-1.119,2.5-2.5v-2.116c0-1.381-1.119-2.5-2.5-2.5
				S142.225,59.093,142.225,60.473z"/>
			<path d="M130.5,73.525v-9.656c0-1.381-1.119-2.5-2.5-2.5s-2.5,1.119-2.5,2.5v9.656c0,1.381,1.119,2.5,2.5,2.5
				S130.5,74.906,130.5,73.525z"/>
			<path d="M197.14,185.947C197.14,185.946,197.14,185.946,197.14,185.947l-0.51-39.077c-0.1-7.51-4.66-14.21-11.6-17.06
				l-33.429-13.716c-2.771-1.126-4.632-3.896-4.632-6.894v-5.821c1.899-1.058,3.72-2.287,5.43-3.689
				c1.113-0.898,1.189-2.515,0.351-3.51c-0.84-1.03-2.48-1.2-3.51-0.36c0,0,0,0-0.011,0.01c-5.381,4.41-13.13,7.64-21.35,7.64
				c-18.168-0.033-33.401-15.014-33.311-33.5v-22.79c0-2.142,1.896-3.904,4.171-3.56l51.159,8.51c6.681,1.11,11.53,6.83,11.53,13.6
				v4.24c0,3.7-0.59,7.31-1.76,10.75c-0.44,1.31,0.27,2.73,1.58,3.17c1.28,0.43,2.729-0.29,3.16-1.57
				c1.34-3.96,2.02-8.12,2.02-12.35v-4.24c0-9.146-6.609-17.003-15.71-18.54l-51.15-8.5c-5.511-0.837-9.988,3.392-10,8.49v22.79
				c0.059,14.721,8.632,27.822,19.461,33.497v5.733c0,2.998-1.861,5.768-4.644,6.899L70.97,129.81c-6.939,2.85-11.5,9.55-11.6,17.06
				l-0.511,39.08c0,0.003,0.001,0.006,0.001,0.01c-0.027,2.075-0.034,3.651-0.04,4.968c-0.038,8.369-0.021,6.024-5.238,59.158
				c-0.144,1.464,1.005,2.744,2.491,2.744c1.271,0,2.358-0.965,2.485-2.256c5.231-53.31,5.222-50.932,5.262-59.624
				c0.003-0.726,0.007-1.545,0.014-2.47H75.05c-8.83,18.309-9.78,41.816-6.51,62.25c0.223,1.358,1.469,2.284,2.859,2.07
				c1.36-0.226,2.295-1.457,2.08-2.87c0,0-5.273-26.133,2.801-51c2.31-7.14,4.729-11.08,5-11.5c0.348-0.49,0.517-1.09,0.434-1.816
				c-1.757-13.313-1.513-10.061-0.814-32.405c0.043-1.38-1.041-2.534-2.421-2.577c-1.357-0.012-2.533,1.041-2.577,2.421
				c-0.64,20.496-0.928,19.773,0.487,30.428H63.89l0.48-36.55c0.08-5.5,3.41-10.41,8.5-12.5l22.22-9.13
				c1.745,17.785,16.466,27.947,32.89,28.08h0.04c16.29-0.132,31.131-10.173,32.891-28.08l22.22,9.13c5.08,2.09,8.42,7,8.5,12.5
				l0.47,36.55h-12.488c0.665-4.981,1.178-9,0.997-14.088l-0.511-16.34c-0.044-1.38-1.212-2.433-2.577-2.421
				c-1.38,0.043-2.464,1.197-2.421,2.577l0.512,16.351c0.19,5.367-0.469,9.573-1.324,16.036c-0.074,0.5,0.033,1.245,0.412,1.795
				c0.43,0.69,4.35,7.09,7.04,18.92c0.3,1.33,1.649,2.19,2.989,1.89c1.34-0.31,2.19-1.65,1.88-2.99
				c-1.75-7.73-4.04-13.35-5.659-16.73h11.215c0.093,11.953-0.395,4.299,5.276,62.094c0.133,1.351,1.33,2.376,2.732,2.244
				c1.374-0.135,2.379-1.358,2.244-2.732C196.407,188.87,197.342,201.323,197.14,185.947z M128,148.38
				c-14.54-0.099-27.223-9.099-28.034-25.074c3.992-1.617,2.738-1.104,6.315-2.58c4.707-1.913,7.749-6.437,7.749-11.526v-3.394
				c9.05,3.595,18.871,3.525,27.939-0.057v3.451c0,5.089,3.042,9.613,7.74,11.522c3.55,1.459,2.648,1.09,6.324,2.582
				C155.223,139.317,142.489,148.281,128,148.38z"/>
			<path d="M86.78,28.19c1.129,0.815,2.691,0.535,3.489-0.57c0.8-1.12,0.54-2.69-0.58-3.49c-1.08-0.78-2.71-0.51-3.489,0.57
				c0,0.01,0,0.01,0,0.02C85.41,25.84,85.67,27.389,86.78,28.19z"/>
			<path d="M96.53,20.53c0.01,0,0.01,0,0.02,0c8.5-7.83,19.67-12.22,31.45-12.36c25.96,0.32,46.31,20.67,46.319,46.33
				c0,23.868,0.013,35.726-12.51,55.88c-0.729,1.17-0.37,2.71,0.8,3.44c1.159,0.724,2.699,0.392,3.44-0.8
				c13.342-21.388,13.27-34.62,13.27-58.52c0-28.086-22.474-51.018-51.289-51.33h-0.061c-13.03,0.15-25.4,5-34.81,13.68
				c-1.021,0.93-1.08,2.51-0.15,3.53C93.899,21.35,95.56,21.42,96.53,20.53z"/>
			<path d="M89.95,113.02c0.748,1.203,2.294,1.517,3.439,0.8c1.17-0.73,1.53-2.27,0.8-3.44c0,0,0-0.01-0.01-0.01
				c-12.548-20.203-12.5-32.084-12.5-55.87c0-6.5,1.311-12.78,3.9-18.66c0.56-1.26-0.021-2.74-1.28-3.3
				c-1.23-0.54-2.76,0.06-3.29,1.28c-2.87,6.51-4.33,13.47-4.33,20.68C76.68,78.369,76.616,91.65,89.95,113.02z"/>
			<path d="M158.99,88.37c-1.101-0.76-2.721-0.46-3.48,0.64c-0.772,1.118-0.516,2.682,0.64,3.48c1.121,0.774,2.689,0.506,3.48-0.64
				C160.402,90.732,160.146,89.168,158.99,88.37z"/>
			<path d="M186.189,218.09c1.37-0.17,2.341-1.42,2.17-2.79c-0.159-1.35-1.43-2.34-2.779-2.17c-1.42,0.17-2.342,1.452-2.181,2.78
				C183.563,217.199,184.694,218.243,186.189,218.09z"/>
			<path d="M186.569,223.08c-1.314,0.039-2.463,1.111-2.42,2.58c0.258,8.07-0.345,16.225-1.64,24.27
				c-0.223,1.331,0.668,2.637,2.07,2.87c1.455,0.209,2.654-0.752,2.87-2.07c1.434-9.009,1.948-17.416,1.699-25.23
				C189.1,224.11,187.96,223.02,186.569,223.08z"/>
		</g>
	</g>
</g>
</svg>
