<svg xmlns="http://www.w3.org/2000/svg" viewBox="0 0 340 340"><g id="Layer_7" data-name="Layer 7"><path d="M318.586,28.226h0a6.369,6.369,0,0,0-6.367,6.26l-2.292,135.2h17.319l-2.293-135.2A6.367,6.367,0,0,0,318.586,28.226Z" style="fill:#dde5f4"/><path d="M287.528,192.289A204.072,204.072,0,0,1,303,168.136a16.682,16.682,0,0,1,24.99-1.817c1.268,1.247,2.549,2.585,3.8,4.008a16.78,16.78,0,0,1,1.464,20.421l-18.071,27.141S295.8,208.385,287.528,192.289Z" style="fill:#ffd4ca"/><path d="M130.667,330h21.925a64.126,64.126,0,0,1,31.75,0h21.926l5.694-27.51H125.293Z" style="fill:#464659"/><rect x="152.592" y="306.97" width="31.749" height="23.03" style="fill:#ffc676"/><path d="M136.057,145.677h64.82s10,66.02,9.677,162c0,0-36.138,7.835-84.833,0C125.721,307.681,118.367,236.69,136.057,145.677Z" style="fill:#fff"/><path d="M210.554,307.681c.008-2.227.008-4.431,0-6.625-18.416.7-31.373-.955-39.811-2.834a14.991,14.991,0,0,1-11.676-15.964l10.3-115.952-12.408-20.629H136.057c-17.69,91.013-10.336,162-10.336,162C174.416,315.516,210.554,307.681,210.554,307.681Z" style="fill:#dde5f4"/><path d="M200.877,145.677h-64.82q-1.444,7.433-2.667,14.675c1.012,1.857,8.314,14.848,18.269,22L168.279,170l15.7,12.35s10.19-5.014,19.152-18.887C201.829,151.963,200.877,145.677,200.877,145.677Z" style="fill:#dde5f4"/><path d="M155.6,233.875l-3.013,36.466,15.875,15.595,15.875-15.595-6.067-73.424C169.172,206.293,161.694,218.762,155.6,233.875Z" style="fill:#7ba7ec"/><polygon points="178.275 196.917 174.545 151.765 162.39 151.765 155.605 233.875 178.275 196.917" style="fill:#6c83d6"/><path d="M186.2,135.319H150.735l-14.678,10.358a94.94,94.94,0,0,0,16.178,24.158l16.232-15.205L184.7,169.835a94.94,94.94,0,0,0,16.178-24.158Z" style="fill:#fff"/><polygon points="150.735 125.2 150.735 135.319 168.467 154.63 186.199 135.319 186.199 125.884 150.735 125.2" style="fill:#ffd4ca"/><path d="M150.735,125.2c12.206,5.619,27.894,5.718,35.464.684v-13.1H150.735Z" style="fill:#f99c9c"/><path d="M136.057,145.677s-.944,26.1-2.074,61.36c-4.112,16.627-4.1,35.026-1.649,54.471-.667,23.58-1.274,47.554-1.667,68.492l-38.924-.018s-6.9-57.608-.146-111.131c1.1-8.747,2.111-17.384,2.963-25.643a45.035,45.035,0,0,1,18.928-32.256C120.846,155.791,129.321,149.968,136.057,145.677Z" style="fill:#e0898d"/><path d="M132.334,261.508c.3-10.7.618-21.321.931-31.541l-38.434-4.33-4.231.947c-6.722,51.19-16.068,103.39-16.068,103.39l17.956.009a12.8,12.8,0,0,0,12.807-12.8v-41.5c7.243-6.4,6.963-16.141,6.963-16.141C119.054,258.518,127.551,260.269,132.334,261.508Z" style="fill:#b45f6d"/><path d="M287.528,192.289,267.52,222.2l-34.393-49.079a74.13,74.13,0,0,0-19.23-18.913c-3.631-2.451-8.015-5.347-13.02-8.535,0,0,4.01,110.854,5.391,184.323h28.986s-1.186-39.962-3.558-84.595l30.681,24.711a13.724,13.724,0,0,0,20.026-3.074l32.782-49.153Z" style="fill:#e0898d"/><path d="M3.964,207.17s50.214-20.313,70.568,25.342l-55.479-6.191S14.8,212.78,3.964,207.17Z" style="fill:#fff"/><path d="M145.1,207.17s-50.214-20.313-70.568,25.342l59.22-4.092S134.266,212.78,145.1,207.17Z" style="fill:#fff"/><path d="M74.532,232.512S48.826,209.469,8.1,226.99a5.251,5.251,0,0,0-3.165,4.822v16.359a2.824,2.824,0,0,0,4.1,2.525c9.677-4.94,35.406-15.034,65.5-2.128,30.1-12.906,55.825-2.812,65.5,2.128a2.824,2.824,0,0,0,4.1-2.525V231.812a5.251,5.251,0,0,0-3.165-4.822C100.237,209.469,74.532,232.512,74.532,232.512Z" style="fill:#ffc676"/><path d="M57.4,264.213v47.7A18.086,18.086,0,0,0,75.488,330h0a18.086,18.086,0,0,0,18.086-18.086V258.083Z" style="fill:#e0898d"/><path d="M62.439,241.868H86.625a14.982,14.982,0,0,1,14.982,14.982v0a18.835,18.835,0,0,1-18.835,18.835H66.291A18.835,18.835,0,0,1,47.456,256.85v0a14.982,14.982,0,0,1,14.982-14.982Z" style="fill:#ffd4ca"/><path d="M126.326,71.629h10.235a0,0,0,0,1,0,0V98.956a0,0,0,0,1,0,0H126.326a11.445,11.445,0,0,1-11.445-11.445V83.074A11.445,11.445,0,0,1,126.326,71.629Z" style="fill:#f99c9c"/><path d="M208.278,71.629h10.235a0,0,0,0,1,0,0V98.956a0,0,0,0,1,0,0H208.278a11.445,11.445,0,0,1-11.445-11.445V83.074A11.445,11.445,0,0,1,208.278,71.629Z" transform="translate(415.347 170.585) rotate(180)" style="fill:#f99c9c"/><path d="M140.386,25.455A23.368,23.368,0,0,0,118.512,34.4c-8.553,10.727-11.676,35.063,18.129,47.7l64.751-9.734a64.583,64.583,0,0,0,11.237.7c6.007-.148,11.717-6.8,11.693-12.81a24.837,24.837,0,0,0-2.761-10.608,48.24,48.24,0,0,1-4.138-13.242C215.862,26.68,208.866,10,179.242,10,148.813,10,140.386,25.455,140.386,25.455Z" style="fill:#595975"/><path d="M139.055,104.776c3.77,5.381,10.2,11.063,21.159,14.308a31.076,31.076,0,0,0,26.234-3.8A38.638,38.638,0,0,0,200.59,97.534a30.41,30.41,0,0,0,2.216-11.555V73.708a6.755,6.755,0,0,0-3.689-6.011c-4.968-2.546-14.009-8.635-21.156-21.576a14.223,14.223,0,0,0-6.245-6.04q-.43-.206-.9-.41c-17.527-7.6-37.062,5.673-37.062,24.777V87.376A30.272,30.272,0,0,0,139.055,104.776Z" style="fill:#ffd4ca"/><path d="M158.025,79.225a3.5,3.5,0,0,1-3.5-3.5V72.478a3.5,3.5,0,1,1,7,0v3.247A3.5,3.5,0,0,1,158.025,79.225Z" style="fill:#f99c9c"/><path d="M180.815,79.225a3.5,3.5,0,0,1-3.5-3.5V72.478a3.5,3.5,0,0,1,7,0v3.247A3.5,3.5,0,0,1,180.815,79.225Z" style="fill:#f99c9c"/><path d="M169.373,101.607c-8.416,0-12.457-3.777-13.8-5.4a3.5,3.5,0,0,1,5.388-4.469c.4.479,2.671,2.869,8.416,2.869s8.019-2.39,8.416-2.869a3.5,3.5,0,1,1,5.388,4.47C181.83,97.831,177.789,101.607,169.373,101.607Z" style="fill:#f99c9c"/><path d="M330.65,164.036l-2.2-129.61a9.868,9.868,0,0,0-19.733,0l-2.138,126.091a20.055,20.055,0,0,0-6.332,5.453l-.01.009-.006.01c-.01.013-.021.025-.03.038a206.121,206.121,0,0,0-15.683,24.462L267.453,216.01l-31.46-44.894a77.374,77.374,0,0,0-20.138-19.805c-4.2-2.834-26.155-17.806-26.155-17.806V117.24a41.466,41.466,0,0,0,12.459-14.784h4.909a14.962,14.962,0,0,0,14.945-14.945V83.074a14.866,14.866,0,0,0-3.344-9.4,14.3,14.3,0,0,0,9.153-13.425,28.48,28.48,0,0,0-3.106-12.109,44.72,44.72,0,0,1-3.837-12.282C219.462,27.029,212.571,6.5,179.243,6.5c-25.777,0-36.931,10.662-40.535,15.246a26.89,26.89,0,0,0-22.933,10.47,32,32,0,0,0,.623,39.719,14.894,14.894,0,0,0-5.017,11.139v4.437a14.962,14.962,0,0,0,14.945,14.945h7.316a31.787,31.787,0,0,0,2.546,4.328,37.6,37.6,0,0,0,11.047,10.372v16.349s-26.5,18.086-35.757,24.581a48.514,48.514,0,0,0-20.4,34.763c-.5,4.843-1.077,10.026-1.713,15.406a51.269,51.269,0,0,0-14.834,16.561c-11.557-19.972-29.319-25.033-42.771-25.593a76.667,76.667,0,0,0-29.11,4.7,3.5,3.5,0,0,0-.3,6.352c5.041,2.611,8.506,7.333,10.612,11.07a96.627,96.627,0,0,0-9.532,3.909,3.5,3.5,0,0,0-2,3.164v24.6A3.674,3.674,0,0,0,3.282,256.1a4.078,4.078,0,0,0,3.594-.177A73.813,73.813,0,0,1,47.629,245.84a18.357,18.357,0,0,0-3.672,11.01A22.332,22.332,0,0,0,53.9,275.423v36.491A21.611,21.611,0,0,0,75.488,333.5l159.823-.637a3.5,3.5,0,0,0,3.422-3.606c-.12-3.936-1.175-37.6-3.136-76.216l24.585,19.8a17.224,17.224,0,0,0,25.133-3.858L318.1,219.831h0l18.071-27.141a20.315,20.315,0,0,0-1.754-24.679C333.238,166.677,331.969,165.343,330.65,164.036ZM196.441,146.831a94.737,94.737,0,0,1-11.968,18l-11.084-10.382L186.7,139.953Zm-27.974,12.6,3.467,3.247,8.785,106.321L168.467,281.03l-12.252-12.036L165,162.673Zm-14.232-25.47V120.7c1.593.647,8.71,3.242,15.212,3.242a34.055,34.055,0,0,0,13.253-2.681v12.7l-14.233,15.5Zm60.778-46.445a7.954,7.954,0,0,1-7.945,7.945H205a34.413,34.413,0,0,0,1.3-9.477V75.129h.761a7.954,7.954,0,0,1,7.945,7.945Zm-88.687,7.945a7.954,7.954,0,0,1-7.945-7.945V83.074a7.954,7.954,0,0,1,7.945-7.945h3.926V87.376a35.617,35.617,0,0,0,.922,8.08Zm3.926-31.008v3.681h-3.926a14.867,14.867,0,0,0-3.59.455,24.733,24.733,0,0,1-1.487-32,19.8,19.8,0,0,1,18.432-7.7,3.5,3.5,0,0,0,3.778-1.753c.074-.136,7.756-13.63,35.784-13.63,25.589,0,33.006,12.76,34.724,23.464a51.711,51.711,0,0,0,4.439,14.2,21.62,21.62,0,0,1,2.416,9.107,7.481,7.481,0,0,1-7.458,7.442,22.489,22.489,0,0,1-9.074-1.6c-.052-.024-.107-.034-.159-.055a3.256,3.256,0,0,0-.306-.123c-.132-.041-13.285-4.279-22.8-21.507a18.947,18.947,0,0,0-8.817-7.969,29.226,29.226,0,0,0-28.165,2.492A30.42,30.42,0,0,0,130.252,64.448Zm11.67,38.32h0a26.632,26.632,0,0,1-4.669-15.392V64.448A23.442,23.442,0,0,1,147.883,44.8,22.729,22.729,0,0,1,160.4,40.981a18.719,18.719,0,0,1,9.023,1.9,13.77,13.77,0,0,1,5.476,4.931c8.476,15.348,19.519,21.68,24.41,23.857V85.979a26.786,26.786,0,0,1-1.955,10.227,35.208,35.208,0,0,1-12.865,16.182,27.441,27.441,0,0,1-23.279,3.341C152.662,113.2,146.173,108.836,141.922,102.768Zm8.316,37.185,13.308,14.492L152.459,164.83a94.38,94.38,0,0,1-11.967-18Zm-52.2,53.614a41.518,41.518,0,0,1,17.456-29.75c6.448-4.522,12.079-8.38,16.822-11.528-.318,9.023-.92,26.39-1.61,47.665a72.462,72.462,0,0,0-13.407-.731,54.467,54.467,0,0,0-20.388,4.7C97.321,200.348,97.7,196.874,98.042,193.567ZM137.4,208.379a40.168,40.168,0,0,0-8.126,10.888c-19.458-5.023-34.736-1.336-44.577,3.026C100.8,201.953,125.715,205.322,137.4,208.379Zm-125.688.038a69.8,69.8,0,0,1,19.762-2.2c13.967.582,25.009,5.988,32.969,16.106C54.6,217.948,39.3,214.234,19.8,219.267A40.257,40.257,0,0,0,11.707,208.417Zm39.25,48.433a11.494,11.494,0,0,1,11.481-11.482H86.624A11.5,11.5,0,0,1,98.107,256.85a15.352,15.352,0,0,1-15.335,15.335H66.291A15.352,15.352,0,0,1,50.957,256.85Zm39.117,55.064a14.586,14.586,0,0,1-29.172,0v-33.39a22.33,22.33,0,0,0,5.389.661H82.772a22.245,22.245,0,0,0,7.3-1.232ZM127.233,326.5H91.354a21.477,21.477,0,0,0,5.72-14.586V273.989a22.3,22.3,0,0,0,8.033-17.139,18.36,18.36,0,0,0-3.668-11,75.035,75.035,0,0,1,27.727,4.085C128.293,279.8,127.644,305.535,127.233,326.5ZM78.482,233.879c6.133-4.376,29.111-17.908,62.15-3.215v16.4a81.382,81.382,0,0,0-47.2-7.483c-.057.008-.109.03-.165.041a18.363,18.363,0,0,0-6.644-1.255H62.438a18.34,18.34,0,0,0-6.615,1.245,81.353,81.353,0,0,0-47.392,7.452v-16.4c32.9-14.647,56.013-1.114,62.158,3.232a6.8,6.8,0,0,0,3.934,1.238h0A6.807,6.807,0,0,0,78.482,233.879Zm70.61,92.621H134.235q.13-6.7.294-14.034,7.53.946,14.563,1.441Zm31.75,0h-24.75V314.335c4.621.218,9.03.311,13.191.311,4.108,0,7.968-.092,11.559-.244ZM134.69,305.439c.367-15.673.834-33.309,1.4-52.743a51.49,51.49,0,0,1,6.1,3.231,3.5,3.5,0,0,0,5.445-2.909v-24.6a3.5,3.5,0,0,0-2-3.164,96.9,96.9,0,0,0-9.533-3.91c2.117-3.757,5.578-8.462,10.612-11.069a3.5,3.5,0,0,0-.3-6.352,65.076,65.076,0,0,0-8.741-2.646c.574-17.736,1.09-32.833,1.436-42.78a94.055,94.055,0,0,0,10.621,13.779,3.5,3.5,0,0,0,4.9.112l2.76-2.585L149.1,270.053a3.5,3.5,0,0,0,1.036,2.785l15.875,15.595a3.5,3.5,0,0,0,4.905,0l15.874-15.595a3.5,3.5,0,0,0,1.036-2.785L179.547,169.8s3.153,3.417,5.152,3.531a3.3,3.3,0,0,0,2.508-1.057,94.127,94.127,0,0,0,10.62-13.778c.94,27.044,3.137,92.319,4.418,147.018A262.14,262.14,0,0,1,134.69,305.439ZM187.842,326.5V314.013c5.964-.412,10.892-.96,14.564-1.453.107,4.758.2,9.416.294,13.94ZM315.719,34.545a2.868,2.868,0,0,1,5.735,0L323.571,159.4a22.833,22.833,0,0,0-9.949-1.188ZM279.491,265.1a10.223,10.223,0,0,1-14.918,2.29l-29.46-23.727-2.01-40.4a3.5,3.5,0,0,0-6.992.347l2.089,41.969v.011c1.914,36.027,3.063,69.253,3.423,80.352l-21.924.482c-1.219-62.15-4.22-149.524-5.087-174.174,2.487,1.624,4.936,3.25,7.325,4.863a70.408,70.408,0,0,1,18.323,18.021l34.393,49.079a3.577,3.577,0,0,0,2.905,1.492,3.5,3.5,0,0,0,2.871-1.555l16.945-25.337c6.983,10.164,17.394,17.145,22.782,20.308Zm50.852-76.291-16.291,24.466c-5.137-3-16.407-10.426-22.534-20.983a208.8,208.8,0,0,1,12.163-19.178l8.525,6.667a2.824,2.824,0,0,1,.634,3.884,2.578,2.578,0,0,1-3.544,1.056q-.317-.155-.643-.333a3.5,3.5,0,0,0-3.36,6.141c.319.175.634.337.94.486a10.014,10.014,0,0,0,4.4,1.043,9.563,9.563,0,0,0,8.145-4.683,9.815,9.815,0,0,0-2.256-13.107l-8.279-6.475a13.152,13.152,0,0,1,17.293,1.021c1.28,1.26,2.5,2.548,3.637,3.831A13.307,13.307,0,0,1,330.343,188.809Z" style="fill:#3c3c4f"/></g></svg>