<?xml version="1.0" encoding="iso-8859-1"?>
<!-- Generator: Adobe Illustrator 19.0.0, SVG Export Plug-In . SVG Version: 6.00 Build 0)  -->
<svg version="1.1" id="Layer_1" xmlns="http://www.w3.org/2000/svg" xmlns:xlink="http://www.w3.org/1999/xlink" x="0px" y="0px"
	 viewBox="0 0 512.002 512.002" style="enable-background:new 0 0 512.002 512.002;" xml:space="preserve">
<g>
	<polygon style="fill:#50000F;" points="126.589,311.35 258.916,256.857 383.307,312.582 	"/>
	<path style="fill:#50000F;" d="M126.589,311.35c0,0,5.061,40.853-24.364,40.853c0,0-6.095,25.034,16.504,40.576h273.535
		c22.6-15.542,16.504-40.576,16.504-40.576c-29.424,0-24.364-40.853-24.364-40.853"/>
</g>
<path style="fill:#4BCDB2;" d="M183.148,360.98h-6.679c-52.89,13.823-92.219,62.149-92.219,119.214v25.8h347.252v-25.8
	c0-57.064-39.325-105.389-92.213-119.213l-6.682-0.001H183.148z"/>
<path style="fill:#FF6243;" d="M312.191,380.274c0,29.997-24.317,54.314-54.314,54.314s-54.314-24.317-54.314-54.314v-34.278
	h108.629v34.278H312.191z"/>
<ellipse style="fill:#FFD422;" cx="258.908" cy="457.08" rx="15.997" ry="22.497"/>
<g>
	<path style="fill:#D3FDF9;" d="M183.04,360.981h-6.679c-13.857,3.621-26.781,9.615-38.313,17.51v127.504l0,0l32.811-20.277
		l32.811,20.277l0,0V360.981H183.04z"/>
	<path style="fill:#D3FDF9;" d="M339.181,360.982l-6.682-0.001h-20.416v145.015l32.811-20.277l32.811,20.277v-127.36
		C366.121,370.669,353.122,364.626,339.181,360.982z"/>
</g>
<path style="fill:#FF7956;" d="M145.711,179.691v36.328v61.501c0,61.692,50.474,112.166,112.166,112.166l0,0
	c61.692,0,112.166-50.474,112.166-112.166v-61.501v-36.328L145.711,179.691L145.711,179.691z"/>
<path style="fill:#FF6243;" d="M369.817,208.754c21.12,0,38.241,17.122,38.241,38.241s-17.122,38.241-38.241,38.241V208.754z"/>
<path style="fill:#FF7956;" d="M145.711,285.238c-21.12,0-38.241-17.122-38.241-38.241s17.122-38.241,38.241-38.241V285.238z"/>
<path style="fill:#4BCDB2;" d="M376.33,88.718v86.916c0,2.24-1.816,4.055-4.055,4.055H251.059H142.211
	c-2.24,0-4.055-1.816-4.055-4.055V88.718H376.33z"/>
<path style="fill:#FFF5CC;" d="M290.734,279.402c3.737,0,6.559,3.389,5.891,7.068c-3.329,18.377-19.412,32.314-38.749,32.314
	s-35.42-13.937-38.749-32.314c-0.666-3.677,2.154-7.068,5.892-7.068H290.734z"/>
<path style="fill:#328777;" d="M138.789,88.238v19.069l115.038,38.653c2.627,0.883,5.471,0.883,8.098,0l115.038-38.653V88.238
	H138.789z"/>
<path style="fill:#3EAC92;" d="M409.373,77.617l-148.08,49.756c-2.627,0.883-5.471,0.883-8.098,0L105.113,77.617
	c-3.731-1.254-3.886-6.473-0.235-7.947l147.61-59.537c3.051-1.231,6.459-1.231,9.51,0l147.61,59.537
	C413.259,71.142,413.104,76.363,409.373,77.617z"/>
<path style="fill:#FF6243;" d="M324.524,180.24v36.328v61.501c0,53.47-37.921,98.505-88.196,109.561
	c6.909,1.343,14.036,2.056,21.322,2.056l0,0c61.692,0,112.166-50.474,112.166-112.166v-61.501v-36.328"/>
<g>
	<path style="fill:#50000F;" d="M402.945,390.404c16.825-17.889,11.6-40.516,11.337-41.599c-0.829-3.406-3.881-5.805-7.388-5.805
		c-5.094,0-8.825-1.454-11.403-4.444c-4.932-5.718-5.347-16.167-4.946-22.069c7.074-3.41,11.979-10.629,11.979-18.993
		c0-6.17-2.679-11.712-6.915-15.573c11.035-8.379,18.176-21.631,18.176-36.525c0-22.61-16.455-41.436-38.015-45.163v-14.659
		c3.571-0.625,6.287-3.732,6.287-7.482V92.586l27.86-9.361c4.751-1.596,7.916-5.864,8.064-10.875
		c0.148-5.01-2.759-9.457-7.406-11.332L262.967,1.482c-4.903-1.976-10.3-1.976-15.199,0L100.157,61.019
		c-4.647,1.876-7.554,6.322-7.406,11.333c0.148,5.01,3.314,9.278,8.064,10.875l27.86,9.361v85.505c0,4.183,3.377,7.574,7.554,7.602
		v14.5c-21.671,3.635-38.241,22.515-38.241,45.203c0,14.893,7.143,28.145,18.176,36.525c-4.236,3.861-6.915,9.402-6.915,15.573
		c0,6.758,3.207,12.768,8.166,16.632c0.249,6.755-0.538,18.315-5.991,24.46c-2.674,3.012-6.192,4.414-11.075,4.414
		c-3.507,0-6.559,2.398-7.388,5.805c-0.276,1.132-5.981,25.886,13.877,44.09c-20.149,23.2-32.068,53.353-32.068,85.702v25.799
		c0,4.2,3.403,7.604,7.604,7.604h347.253c4.2,0,7.604-3.404,7.604-7.604v-25.801C437.23,445.077,424.435,413.914,402.945,390.404z
		 M143.883,380.917c9.632-6.09,20.269-10.843,31.703-13.932h2.709c4.938,4.22,10.219,8.05,15.8,11.433
		c-0.003,0.085-0.013,0.169-0.013,0.255c0,1.665,0.085,3.308,0.215,4.939v107.143l-21.21-13.107c-2.449-1.515-5.545-1.515-7.994,0
		l-21.211,13.108v-109.84L143.883,380.917L143.883,380.917z M151.438,225.433c11.277-4.365,37.737-16.15,51.956-35.227
		c15.635,12.96,58.33,37.701,157.171,38.88v46.837c0,30.501-13.129,57.99-34.03,77.121c-0.613,0.408-1.165,0.9-1.636,1.464
		c-18.413,16.163-42.529,25.978-68.897,25.978c-17.955,0-34.866-4.55-49.645-12.557c-0.494-0.358-1.03-0.66-1.604-0.893
		c-6.315-3.566-12.225-7.768-17.641-12.522c-0.473-0.568-1.028-1.064-1.646-1.473c-20.899-19.131-34.028-46.619-34.028-77.118
		L151.438,225.433L151.438,225.433L151.438,225.433z M257.036,440.592c3.962,0,8.394,6.368,8.394,14.89s-4.432,14.891-8.394,14.891
		s-8.394-6.368-8.394-14.891C248.642,446.96,253.074,440.592,257.036,440.592z M256,425.385c-23.095,0-42.317-16.852-46.045-38.903
		c14.183,5.929,29.737,9.21,46.045,9.21s31.862-3.281,46.045-9.21C298.318,408.533,279.095,425.385,256,425.385z M169.091,493.057
		l6.043,3.735h-12.086L169.091,493.057z M209.505,419.498c7.47,8.497,17.216,14.945,28.287,18.358
		c-2.75,4.924-4.359,10.99-4.359,17.626c0,16.878,10.368,30.099,23.601,30.099c13.234,0,23.601-13.221,23.601-30.099
		c0-6.898-1.734-13.184-4.685-18.207c10.456-3.57,19.654-9.858,26.758-18.025v77.541h-93.206v-77.293L209.505,419.498
		L209.505,419.498z M347.122,477.651c-2.449-1.515-5.545-1.515-7.994,0l-21.211,13.108V378.41
		c5.576-3.381,10.852-7.208,15.787-11.425l2.714,0.001c11.518,3.112,22.227,7.914,31.914,14.07v109.7L347.122,477.651z
		 M349.168,496.792h-12.086l6.044-3.735L349.168,496.792z M400.054,357.58c0.128,5.52-0.993,14.46-8.032,22.188
		c-13.016-11.28-28.365-20.09-45.409-25.609c9.906-11.459,17.679-24.809,22.7-39.428c1.796,1.266,3.788,2.268,5.933,2.927
		c-0.293,7.891,0.601,21.36,8.683,30.777C388.044,353.23,393.54,356.331,400.054,357.58z M381.431,303.379
		c-3.245,0-5.886-2.64-5.886-5.886c0-3.246,2.64-5.886,5.886-5.886s5.886,2.64,5.886,5.886
		C387.317,300.739,384.676,303.379,381.431,303.379z M398.578,245.396c0,14.188-9.695,26.151-22.807,29.621v-59.24
		C388.884,219.245,398.578,231.209,398.578,245.396z M253.457,15.586c1.233-0.497,2.59-0.497,3.821,0l139.156,56.127
		l-139.442,46.852c-1.046,0.352-2.201,0.354-3.251,0L198.39,99.968l59.996-25.966c3.855-1.668,5.627-6.145,3.958-9.998
		c-1.668-3.855-6.148-5.628-9.998-3.958l-75.511,32.68l-38.294-12.867h-0.001l-24.24-8.144L253.457,15.586z M169.8,106.404v24.748
		c-3.894,2.505-6.481,6.869-6.481,11.843c0,7.778,6.305,14.084,14.084,14.084s14.084-6.305,14.084-14.084
		c0-4.975-2.586-9.338-6.481-11.843v-19.638l63.888,21.466c2.088,0.701,4.28,1.052,6.472,1.052s4.384-0.352,6.47-1.052
		l105.013-35.284v72.791H143.883V97.696L169.8,106.404z M136.23,215.714v4.451c0,0.021,0,0.044,0,0.065v54.849
		c-13.228-3.39-23.034-15.413-23.034-29.682S123.002,219.105,136.23,215.714z M130.344,303.379c-3.245,0-5.886-2.64-5.886-5.886
		c0-3.246,2.64-5.886,5.886-5.886c3.246,0,5.886,2.64,5.886,5.886C136.23,300.739,133.589,303.379,130.344,303.379z
		 M107.186,357.547c6.22-1.253,11.553-4.273,15.652-8.913c7.785-8.809,9.605-21.462,9.818-30.181
		c3.702-0.406,7.107-1.782,9.983-3.856c5.02,14.671,12.81,28.068,22.747,39.561c-18.152,5.876-34.38,15.491-47.915,27.841
		C108.394,373.802,107.041,363.589,107.186,357.547z M89.978,478.597c0-33.748,14.695-64.781,38.698-86.203v104.399H89.978V478.597z
		 M422.022,496.792h-38.483V394.461c0.168,0.351,0.357,0.695,0.584,1.026c1.376,2,3.539,3.125,5.789,3.268
		c20.073,20.986,32.11,49.3,32.11,79.84V496.792L422.022,496.792z"/>
	<circle style="fill:#50000F;" cx="212.908" cy="241.41" r="11.01"/>
	<circle style="fill:#50000F;" cx="299.098" cy="241.41" r="11.01"/>
	<path style="fill:#50000F;" d="M295.382,270.199h-78.763c-4.2,0-7.604,3.403-7.604,7.604c0,25.908,21.078,46.986,46.986,46.986
		s46.986-21.078,46.986-46.986C302.986,273.603,299.582,270.199,295.382,270.199z M256,309.581
		c-14.902,0-27.441-10.312-30.858-24.174h61.716C283.442,299.269,270.902,309.581,256,309.581z"/>
</g>
<g>
</g>
<g>
</g>
<g>
</g>
<g>
</g>
<g>
</g>
<g>
</g>
<g>
</g>
<g>
</g>
<g>
</g>
<g>
</g>
<g>
</g>
<g>
</g>
<g>
</g>
<g>
</g>
<g>
</g>
</svg>
