<svg id="visual" viewBox="0 0 900 600" width="900" height="600" xmlns="http://www.w3.org/2000/svg" xmlns:xlink="http://www.w3.org/1999/xlink" version="1.1"><g transform="translate(468.47785837202457 302.6374484805913)"><path d="M115.4 -177.1C153.3 -155.2 190.4 -129.5 202.3 -94.9C214.3 -60.2 201.2 -16.6 199.9 32.5C198.7 81.5 209.3 136.1 188.8 168.3C168.2 200.6 116.5 210.6 72.8 202.9C29.1 195.1 -6.6 169.5 -52.8 163.4C-99 157.3 -155.7 170.7 -185.6 152C-215.5 133.3 -218.6 82.6 -228.7 31.2C-238.8 -20.3 -255.8 -72.5 -232.8 -99.5C-209.9 -126.5 -146.8 -128.5 -101.3 -146.9C-55.9 -165.3 -27.9 -200.1 5.4 -208.5C38.7 -217 77.5 -198.9 115.4 -177.1" fill="#104569"></path></g></svg>